<svg width="29" height="25" viewBox="0 0 29 25" fill="none" xmlns="http://www.w3.org/2000/svg">
<g id="crown" clip-path="url(#clip0_0_60)">
<path id="Vector" d="M23.7932 8.19375C23.3759 8.20043 23.1303 8.08855 22.981 7.79644C22.839 7.51877 22.9319 7.2696 23.0828 7.03987C23.162 6.91867 23.2652 6.81537 23.386 6.73647C24.0273 6.3298 24.6662 5.91716 25.3281 5.54714C25.5473 5.43916 25.7926 5.39703 26.0348 5.42578C26.1471 5.43871 26.2546 5.47826 26.3488 5.54119C26.4431 5.60413 26.5212 5.68868 26.5769 5.78794C26.6326 5.88719 26.6642 5.99833 26.6692 6.11229C26.6743 6.22624 26.6525 6.33977 26.6058 6.44362C26.4878 6.706 26.3008 6.93064 26.065 7.09303C25.4723 7.45613 24.845 7.76305 24.2231 8.07531C24.0852 8.13258 23.9407 8.17238 23.7932 8.19375Z" fill="white"/>
<path id="Vector_2" d="M4.34244 9.07059C4.21026 8.99534 3.9108 8.88953 3.70002 8.68832C3.36067 8.3575 3.05265 7.9954 2.77998 7.60675C2.6346 7.40898 2.55126 7.17178 2.54071 6.92571C2.54564 6.47668 3.01395 6.15276 3.48778 6.31283C3.88097 6.43547 4.24628 6.63537 4.5627 6.90108C4.87911 7.1668 5.14037 7.49309 5.33147 7.86115C5.65101 8.49124 5.21068 9.09097 4.34244 9.07059Z" fill="white"/>
<path id="Vector_3" d="M21.3396 0.0642936C21.9698 0.0604101 22.349 0.536495 22.2244 1.03674C22.1899 1.19887 22.116 1.34974 22.0092 1.47569C21.5823 1.92084 21.1518 2.36575 20.6873 2.76951C20.4619 2.96539 20.1772 3.11173 19.8348 2.99523C19.4362 2.85955 19.2438 2.52848 19.3732 2.12763C19.4065 2.00757 19.4626 1.89516 19.5382 1.79656C19.9391 1.32727 20.3347 0.851053 20.7671 0.412461C20.9448 0.232121 21.2103 0.140143 21.3396 0.0642936Z" fill="white"/>
<path id="Vector_4" d="M10.1442 2.41132C10.1081 2.77904 9.95584 3.05126 9.62741 3.21133C9.32026 3.36084 9.05442 3.25816 8.841 3.04481C8.37745 2.6011 8.02902 2.04909 7.8264 1.4374C7.69121 1.005 7.81835 0.643607 8.12851 0.449311C8.45838 0.243 8.81698 0.271984 9.13026 0.610698C9.60819 1.12817 10.0091 1.70234 10.1442 2.41132Z" fill="white"/>
<path id="Vector_5" d="M28.3656 11.9856C28.3562 11.6732 28.3014 11.3639 28.2026 11.0677C28.0594 10.6749 27.8013 10.408 27.4778 10.3183C27.1505 10.2272 26.7899 10.3257 26.4627 10.5938C26.2157 10.7959 25.9737 11.0166 25.7403 11.2299C25.6442 11.3171 25.548 11.4057 25.4519 11.4918L24.1702 12.6427C23.1242 13.5818 22.0775 14.5208 21.0299 15.4598C20.9548 15.5233 20.8756 15.5816 20.7928 15.6343C20.7594 15.6568 20.725 15.6792 20.6903 15.7042C20.6669 15.7204 20.6402 15.7309 20.6122 15.735C20.5842 15.7393 20.5556 15.7371 20.5286 15.7285C20.5013 15.72 20.4766 15.7052 20.4559 15.6853C20.4353 15.6654 20.4196 15.6409 20.41 15.6138C20.1766 14.969 19.9495 14.3274 19.7222 13.6883C19.2175 12.2684 18.6949 10.7991 18.148 9.37745C17.386 7.39929 16.5686 5.48035 15.8006 3.70086C15.6001 3.2708 15.3278 2.8789 14.9954 2.54238C14.6965 2.22684 14.3693 2.20318 13.9359 2.46883C13.5828 2.68327 13.4321 3.05488 13.2727 3.44771L13.258 3.48412C13.0987 3.8732 12.9412 4.26312 12.7851 4.65389C12.3072 5.8386 11.8132 7.06566 11.2885 8.25535C10.4953 10.0547 9.63742 11.8618 8.82614 13.5587C8.55083 14.1348 8.25076 14.6884 7.93339 15.2746C7.78918 15.5416 7.64197 15.8133 7.495 16.0927C7.48315 16.1155 7.46677 16.1355 7.44691 16.1516C7.42703 16.1676 7.40409 16.1793 7.37951 16.186C7.35494 16.1927 7.32926 16.1941 7.3041 16.1904C7.27893 16.1865 7.25481 16.1775 7.23327 16.1638L6.71208 15.8332C6.38113 15.625 6.07986 15.4355 5.77979 15.2434C5.35751 14.9741 4.93519 14.7043 4.51282 14.4341C3.68556 13.9041 2.85742 13.3762 2.02839 12.8503C1.84251 12.713 1.62219 12.6308 1.39244 12.6134C1.22323 12.6189 1.06174 12.6863 0.938072 12.803C0.573711 13.1047 0.471208 13.4776 0.625628 13.9438C0.724409 14.2443 0.8578 14.5437 0.986143 14.8342L0.992392 14.8463C1.0961 15.0821 1.20966 15.3202 1.3183 15.5509C1.52331 15.9861 1.73697 16.4369 1.90858 16.898C2.01849 17.1898 2.12882 17.482 2.23953 17.7747C2.9471 19.6465 3.67811 21.5819 4.15603 23.5746C4.31778 24.2506 4.70425 24.616 5.33768 24.692C5.51181 24.7132 5.68618 24.7357 5.85886 24.7581C6.56939 24.8661 7.28651 24.9241 8.00501 24.9314C9.63742 24.9103 11.297 24.8491 12.9024 24.7905C13.6086 24.7643 14.3145 24.7394 15.02 24.7157C16.1784 24.6782 17.3367 24.6424 18.4949 24.6085L19.8249 24.5673C19.9323 24.5648 20.0397 24.561 20.1484 24.5586C20.2657 24.556 20.3843 24.5523 20.5028 24.5486C20.914 24.5365 21.3252 24.5199 21.7363 24.5049C22.7458 24.4676 23.7874 24.4289 24.8148 24.4227C25.2889 24.4201 25.6236 24.2528 25.8694 23.8977C26.0387 23.6369 26.1674 23.3513 26.2509 23.0509L26.3843 22.6094C26.9288 20.8087 27.4907 18.9456 27.8216 17.0602C27.8538 16.8768 27.8871 16.6948 27.9191 16.5114C28.1828 15.0383 28.4569 13.5119 28.3656 11.9856ZM24.2498 22.2599C24.238 22.2928 24.2173 22.3216 24.19 22.3431C24.1627 22.3645 24.1299 22.3778 24.0955 22.3813C23.9474 22.3975 23.7943 22.4162 23.6398 22.4349C23.2868 22.4786 22.92 22.5235 22.5495 22.5397C21.9419 22.5659 21.3246 22.5846 20.7281 22.6003C19.9329 22.6246 19.1104 22.6477 18.3041 22.6926C17.3645 22.7462 16.4086 22.8247 15.485 22.9008C14.9541 22.9445 14.423 22.9882 13.8921 23.0268C13.1166 23.0842 12.4695 23.1303 11.7953 23.1516C10.1344 23.2052 8.4464 23.2486 6.81399 23.2912L6.00523 23.3124H5.9866C5.91149 23.3108 5.83669 23.3019 5.76321 23.2861C5.73845 23.2812 5.71382 23.2762 5.69026 23.274C5.65521 23.2691 5.62228 23.2542 5.59536 23.231C5.56844 23.2077 5.54868 23.1773 5.53836 23.1431L3.39354 16.0973C3.38215 16.061 3.3821 16.0219 3.39341 15.9855C3.40471 15.9491 3.42682 15.9172 3.45673 15.8939C3.48664 15.8706 3.52292 15.8571 3.56065 15.8554C3.59837 15.8536 3.63572 15.8636 3.66765 15.884L3.94549 16.0574C4.12947 16.1721 4.29867 16.2768 4.46535 16.3841C4.7024 16.5363 4.93951 16.6876 5.17665 16.838C5.76441 17.2133 6.3732 17.6 6.95976 18.0014C7.33505 18.2583 7.6636 18.3569 7.93399 18.2945C8.19836 18.2338 8.43162 18.0227 8.64528 17.6499L8.83756 17.3168C9.2006 16.6883 9.57601 16.0374 9.88834 15.3751C10.9218 13.1753 11.9579 10.9307 12.9595 8.75961C13.3546 7.90289 13.7505 7.04617 14.1474 6.18946C14.1806 6.11665 14.2153 6.04599 14.2646 5.94757L14.3597 5.75424C14.375 5.72179 14.3995 5.69466 14.43 5.67623C14.4606 5.65781 14.4959 5.64896 14.5314 5.65075C14.5669 5.65162 14.6014 5.66278 14.6307 5.6829C14.66 5.70302 14.683 5.73123 14.6968 5.7642C14.8425 6.11092 14.9895 6.44636 15.134 6.7756C15.4476 7.49162 15.744 8.16725 15.9972 8.86932C16.5763 10.4793 17.143 12.1217 17.6925 13.7115C18.0074 14.6219 18.3236 15.5327 18.6409 16.4438C18.7978 16.9083 18.9808 17.3634 19.1892 17.8068C19.2577 17.9685 19.3628 18.1117 19.4963 18.2249C19.6297 18.338 19.7876 18.4177 19.9573 18.4577C20.2894 18.5239 20.6401 18.4079 20.9463 18.1323C21.4119 17.7133 21.875 17.2905 22.338 16.869C22.7443 16.4986 23.1505 16.1291 23.5568 15.7604C24.0741 15.2941 24.5932 14.8289 25.1139 14.3648L25.8109 13.7424C25.8366 13.7195 25.8679 13.7041 25.9017 13.698C25.9355 13.6918 25.9703 13.6952 26.0023 13.7076L26.1306 13.7587C26.1699 13.7742 26.203 13.8028 26.224 13.8398C26.2452 13.8768 26.2531 13.9199 26.2467 13.962C25.8675 16.4063 25.334 19.3043 24.2498 22.2599Z" fill="white"/>
</g>
<defs>
<clipPath id="clip0_0_60">
<rect width="28" height="25" fill="white" transform="translate(0.5)"/>
</clipPath>
</defs>
</svg>
