<svg width="247" height="159" viewBox="0 0 247 159" fill="none" xmlns="http://www.w3.org/2000/svg">
<g id="Frame">
<path id="Vector" d="M101.317 89.4314V88.9092L105.518 86.7677V87.6032L102.295 89.1574L102.322 89.105V89.2355L102.295 89.1835L105.518 90.7373V91.5732L101.317 89.4314ZM109.512 84.7828L107.359 92.7873H106.655L108.808 84.7828H109.512ZM114.849 89.4314L110.647 91.5732V90.7373L113.87 89.1835L113.844 89.2355V89.105L113.87 89.1574L110.647 87.6032V86.7677L114.849 88.9092V89.4314Z" fill="#323247"/>
<path id="Vector_2" d="M155.941 57.9443C155.403 69.7482 143.807 78.7932 135.122 79.3392C123.647 80.0608 115.445 69.7049 114.303 57.9443C113.313 47.7556 116.929 47.9074 119.622 43.6607C122.885 38.5152 128.965 35.6717 135.122 35.6717C146.62 35.6717 156.666 42.0631 155.941 57.9443Z" fill="#B83D5D"/>
<path id="Vector_3" d="M143.191 78.237H127.054V98.4528H143.191V78.237Z" fill="#E3B5AA"/>
<path id="Vector_4" d="M153.248 66.4457C156.126 62.0747 159.789 61.8832 161.318 67.0525C162.847 72.2221 157.8 76.4761 153.69 74.9063C149.581 73.3366 153.248 66.4457 153.248 66.4457Z" fill="#E3B5AA"/>
<path id="Vector_5" d="M156.646 66.5599C158.574 66.2069 159.562 71.9555 155.334 72.1452L156.204 70.1396L155.388 68.4708L156.646 66.5599Z" fill="#D78F97"/>
<path id="Vector_6" d="M154.701 72.9333C157.166 70.3044 155.388 68.4708 155.388 68.4708C155.388 68.4708 157.733 63.656 158.674 67.3463" stroke="#C87E84" stroke-width="0.5" stroke-miterlimit="10"/>
<path id="Vector_7" d="M116.862 66.4457C113.983 62.0747 110.321 61.8832 108.792 67.0525C107.262 72.2221 112.31 76.4761 116.419 74.9063C120.529 73.3366 116.862 66.4457 116.862 66.4457Z" fill="#E3B5AA"/>
<path id="Vector_8" d="M113.464 66.5599C111.536 66.2069 110.547 71.9555 114.776 72.1452L113.906 70.1396L114.722 68.4708L113.464 66.5599Z" fill="#D78F97"/>
<path id="Vector_9" d="M115.408 72.9333C112.943 70.3044 114.722 68.4708 114.722 68.4708C114.722 68.4708 112.376 63.656 111.436 67.3463" stroke="#C87E84" stroke-width="0.5" stroke-miterlimit="10"/>
<path id="Vector_10" d="M143.191 78.684V86.2044C137.392 94.0677 127.054 91.511 127.054 91.511L127.235 78.6837H143.191V78.684Z" fill="#C87E84"/>
<path id="Vector_11" d="M135.122 87.3015C125.489 87.3015 117.68 79.487 117.68 69.8476V57.0929C117.68 50.5822 122.955 45.3042 129.461 45.3042H140.784C147.29 45.3042 152.564 50.5822 152.564 57.0929V69.8476C152.564 79.487 144.755 87.3015 135.122 87.3015Z" fill="#E3B5AA"/>
<path id="Vector_12" d="M137.806 72.1293C137.806 73.6123 136.604 74.8146 135.122 74.8146C133.64 74.8146 132.439 73.6123 132.439 72.1293" stroke="#B83D5D" stroke-miterlimit="10"/>
<path id="Vector_13" d="M119.523 46.0847C119.523 46.0847 116.468 41.0173 120.294 36.5494C120.294 36.5494 123.044 41.6432 119.523 46.0847Z" fill="#B83D5D"/>
<path id="Vector_14" d="M121.075 44.8814C121.075 44.8814 116.821 48.9926 111.614 46.2574C111.614 46.2574 115.963 42.4389 121.075 44.8814Z" fill="#B83D5D"/>
<path id="Vector_15" d="M128.196 65.8643C128.196 67.3072 127.582 68.4773 126.824 68.4773C126.066 68.4773 125.452 67.3076 125.452 65.8643C125.452 64.421 126.066 63.2513 126.824 63.2513C127.582 63.2513 128.196 64.4214 128.196 65.8643Z" fill="#1C3C36"/>
<path id="Vector_16" d="M132.883 67.5139C133.899 63.7735 131.692 59.917 127.954 58.9005C124.216 57.8843 120.362 60.0926 119.346 63.8334C118.331 67.5739 120.537 71.4304 124.276 72.4469C128.014 73.4631 131.867 71.2548 132.883 67.5139Z" stroke="#3A396C" stroke-width="4" stroke-miterlimit="10"/>
<path id="Vector_17" d="M144.792 65.8643C144.792 67.3072 144.178 68.4773 143.42 68.4773C142.663 68.4773 142.048 67.3076 142.048 65.8643C142.048 64.421 142.663 63.2513 143.42 63.2513C144.178 63.2513 144.792 64.4214 144.792 65.8643Z" fill="#1C3C36"/>
<path id="Vector_18" d="M150.882 67.5428C151.916 63.8071 149.728 59.9401 145.995 58.9055C142.262 57.871 138.398 60.0605 137.364 63.7962C136.33 67.532 138.518 71.399 142.251 72.4335C145.984 73.4681 149.848 71.2786 150.882 67.5428Z" stroke="#3A396C" stroke-width="4" stroke-miterlimit="10"/>
<path id="Vector_19" d="M119.842 50.2852C119.842 50.2852 130.923 44.4398 138.285 48.6764C145.648 52.913 146.476 61.6624 153.747 59.3981C153.747 59.3981 159.269 56.9654 153.195 48.4921C147.121 40.0189 142.965 38.3613 135.057 40.2031C127.149 42.045 122.004 43.4778 119.842 50.2852Z" fill="#B83D5D"/>
<path id="Vector_20" d="M119.418 50.2014C119.418 50.2014 123.076 45.3483 128.196 44.0654C133.316 42.7826 138.979 49.0848 138.979 49.0848C138.979 49.0848 125.861 47.2129 119.418 50.2014Z" fill="#9A304F"/>
<path id="Vector_21" d="M117.707 56.3059C117.707 56.3059 118.941 65.3129 117.707 70.8099C117.707 70.8099 115.904 56.8432 117.707 56.3059Z" fill="#B83D5D"/>
<path id="Vector_22" d="M152.437 56.3059C152.437 56.3059 151.203 65.3129 152.437 70.8099C152.437 70.8099 154.241 56.8432 152.437 56.3059Z" fill="#B83D5D"/>
<path id="Vector_23" d="M129.951 55.6027C128.047 54.6909 124.662 53.6903 121.526 55.9257C121 56.3008 121.2 57.1283 121.836 57.2382C122.842 57.412 124.286 57.5916 125.92 57.5811C127.19 57.5732 128.693 57.2602 129.815 56.9715C130.475 56.802 130.565 55.8972 129.951 55.6027Z" fill="#B83D5D"/>
<path id="Vector_24" d="M148.33 55.6027C146.427 54.6909 143.042 53.6903 139.905 55.9257C139.38 56.3008 139.579 57.1283 140.215 57.2382C141.222 57.412 142.665 57.5916 144.299 57.5811C145.569 57.5732 147.072 57.2602 148.195 56.9715C148.854 56.802 148.944 55.8972 148.33 55.6027Z" fill="#B83D5D"/>
<path id="Vector_25" d="M141.022 78.4336C140.841 78.7563 140.627 79.0942 140.334 79.4306C139.402 80.5537 137.818 81.6328 135.106 81.6826L135.102 81.6946L134.903 81.6906L134.896 81.6743C132.352 81.6245 130.785 80.6665 129.84 79.6095C129.474 79.2123 129.196 78.7928 128.997 78.4152C128.545 77.5472 128.427 76.8649 128.427 76.8649L141.597 76.8895C141.597 76.8895 141.488 77.5714 141.022 78.4336Z" fill="#C33E5D"/>
<path id="Vector_26" d="M141.022 78.4336C140.841 78.7563 140.627 79.0942 140.334 79.4306C137.311 78.1019 133.675 77.8233 129.84 79.6095C129.474 79.2123 129.196 78.7928 128.997 78.4152C128.545 77.5472 128.427 76.8649 128.427 76.8649L141.597 76.8895C141.597 76.8895 141.488 77.5714 141.022 78.4336Z" fill="#1C3C36"/>
<path id="Vector_27" d="M191.104 148.667L73.0347 148.79C73.0347 148.79 75.2375 144.179 78.4081 138.068C78.6428 137.617 78.8847 137.154 79.1303 136.684C83.46 128.42 89.2847 117.98 93.8311 112.318C99.0672 105.799 111.439 101.151 119.842 98.6111C124.739 97.1331 128.285 96.3706 128.285 96.3706H141.848C141.848 96.3706 145.033 97.0536 149.533 98.387C157.928 100.87 170.481 105.965 176.302 112.318C177.58 113.712 178.783 115.4 179.909 117.272C187.074 129.186 191.104 148.667 191.104 148.667Z" fill="#EBA154"/>
<path id="Vector_28" opacity="0.5" d="M191.104 148.667L73.0347 148.79C73.0347 148.79 75.2375 144.179 78.4081 138.068C137.327 155.4 168.376 126.997 175.461 119.308C176.605 118.067 178.194 117.319 179.881 117.273L179.909 117.272C187.074 129.186 191.104 148.667 191.104 148.667Z" fill="#D9751F" fill-opacity="0.57"/>
<path id="Vector_29" d="M133.27 66.8635H136.974" stroke="white" stroke-width="4" stroke-miterlimit="10"/>
<path id="Vector_30" d="M149.532 98.3856C134.917 114.477 119.842 98.6129 119.842 98.6129C124.739 97.132 128.286 96.3692 128.286 96.3692H141.848C141.848 96.3692 145.033 97.0543 149.532 98.3856Z" fill="#E3B5AA"/>
<path id="Vector_31" d="M102.852 130.461V148.812" stroke="#DC831E" stroke-opacity="0.68" stroke-width="3" stroke-miterlimit="10"/>
<path id="Vector_32" d="M102.852 142.157L97.9279 135.875" stroke="#DC831E" stroke-opacity="0.68" stroke-width="3" stroke-miterlimit="10"/>
<path id="Vector_33" d="M167.058 130.461V148.812" stroke="#DC831E" stroke-opacity="0.68" stroke-width="3" stroke-miterlimit="10"/>
<path id="Vector_34" d="M167.058 142.157L171.43 136.579" stroke="#DC831E" stroke-opacity="0.68" stroke-width="3" stroke-miterlimit="10"/>
<path id="Vector_35" d="M119.142 105.597C119.142 105.597 137.264 117.982 149.532 104.996" stroke="#DC831E" stroke-opacity="0.68" stroke-width="3" stroke-miterlimit="10"/>
<path id="Vector_36" d="M152.993 121.814L155.088 125.391L157.183 121.814H158.731L155.908 126.188L158.731 130.562H157.183L155.088 127.168L152.993 130.562H151.445L154.223 126.188L151.445 121.814H152.993Z" fill="white"/>
<path id="Vector_37" d="M119.422 42.6958C123.491 25.5821 164.255 27.4652 156.67 60.7853C154.398 70.7666 137.784 38.0968 123.445 46.1118C122.373 46.711 121.037 46.5559 120.141 45.7161C119.318 44.9446 119.16 43.794 119.422 42.6958Z" fill="#B83D5D"/>
<path id="Vector_38" d="M141.812 148.678C141.801 148.682 141.787 148.685 141.772 148.685C141.675 148.696 141.574 148.7 141.472 148.7H62.3928C61.3419 148.7 60.4067 148.212 59.7964 147.446C59.3414 146.878 59.0706 146.156 59.0706 145.372L59.0597 145.335L46.7458 110.518C45.8033 107.858 47.775 105.065 50.5953 105.065H101.938C103.671 105.065 105.213 106.156 105.791 107.79L119.062 145.306C119.076 145.35 119.084 145.372 119.084 145.372H141.548C143.61 145.372 143.838 148.458 141.812 148.678Z" fill="#80ABBD"/>
<path id="Vector_39" d="M82.8371 126.084C84.1352 129.862 82.6673 133.792 79.5578 134.862C76.4486 135.932 72.8754 133.737 71.5772 129.959C70.2791 126.181 71.747 122.251 74.8565 121.181C77.9657 120.111 81.5389 122.306 82.8371 126.084Z" fill="white"/>
<path id="Vector_40" d="M141.549 145.371H119.083C119.083 145.371 119.077 145.348 119.064 145.306L105.791 107.789C105.212 106.156 103.671 105.066 101.939 105.066H100.222C100.222 105.066 104.058 105.317 105.017 108.752C105.976 112.184 119.083 148.627 119.083 148.627L120.052 148.699H141.471C141.575 148.699 141.676 148.695 141.774 148.686C143.841 148.497 143.623 145.371 141.549 145.371Z" fill="#4B7195"/>
<path id="Vector_41" opacity="0.4" d="M141.812 148.678C141.801 148.682 141.787 148.685 141.772 148.685C141.675 148.696 141.574 148.7 141.473 148.7H62.3928C61.3419 148.7 60.4067 148.212 59.7964 147.446C106.539 151.464 101.938 105.065 101.938 105.065C103.671 105.065 105.213 106.156 105.791 107.79L119.062 145.306C119.076 145.35 119.084 145.372 119.084 145.372H141.194C141.433 146.467 141.642 147.569 141.812 148.678Z" fill="#5A93A0"/>
<path id="Vector_42" d="M47.7794 125.715V126.88C45.6755 127.121 45.1609 128.901 45.1609 131.068V131.785C45.1609 133.952 45.6759 135.732 47.7794 135.973V137.132H7.55519C5.90455 137.132 4.56732 135.794 4.56732 134.142V128.711C4.56732 127.059 5.90455 125.715 7.55519 125.715L47.7794 125.715Z" fill="#4B7195"/>
<path id="Vector_43" d="M47.1528 134.78C47.3933 135.352 46.9513 135.973 46.336 135.973L7.89673 136.001V126.852L46.336 126.879C46.5598 126.879 46.7613 126.963 46.9123 127.098C47.181 127.322 47.3037 127.708 47.1528 128.072C46.8339 128.833 46.8451 129.892 46.8451 131.067V131.784C46.8448 132.961 46.8336 134.019 47.1528 134.78Z" fill="white"/>
<path id="Vector_44" opacity="0.4" d="M46.9119 127.098C46.1735 127.137 12.2048 128.896 9.87706 132.199C9.24475 133.095 8.52867 133.593 7.89636 133.694V126.852L46.3356 126.88C46.5595 126.88 46.761 126.964 46.9119 127.098Z" fill="#A3D5E6"/>
<path id="Vector_45" d="M9.87714 137.134H6.49714C5.4315 137.134 4.56732 136.27 4.56732 135.203V127.649C4.56732 126.582 5.43114 125.718 6.49714 125.718H9.87714V137.134Z" fill="#4B7195"/>
<path id="Vector_46" opacity="0.4" d="M47.1528 134.78C47.3933 135.351 46.9513 135.973 46.336 135.973L38.6624 135.979C44.7583 135.285 44.3773 130.273 44.3773 130.273C44.4445 130.032 39.5601 127.093 39.6442 126.874L46.336 126.88C46.5599 126.88 46.7614 126.964 46.9123 127.098C47.181 127.323 47.3037 127.709 47.1528 128.073C46.8339 128.834 46.8451 129.893 46.8451 131.068V131.785C46.8448 132.961 46.8336 134.019 47.1528 134.78Z" fill="#A3D5E6"/>
<path id="Vector_47" opacity="0.4" d="M46.8447 130.759H9.94244V131.583H46.8447V130.759Z" fill="#A3D5E6"/>
<path id="Vector_48" opacity="0.4" d="M46.8447 128.902H9.94244V129.726H46.8447V128.902Z" fill="#A3D5E6"/>
<path id="Vector_49" opacity="0.4" d="M46.8447 133.121H9.94244V133.946H46.8447V133.121Z" fill="#A3D5E6"/>
<path id="Vector_50" d="M34.9584 134.293L32.9965 132.335L31.0342 134.293V128.902H34.9584V134.293Z" fill="#C33E5D"/>
<path id="Vector_51" d="M52.082 137.093V138.258C49.9782 138.498 49.4636 140.279 49.4636 142.446V143.163C49.4636 145.329 49.9785 147.11 52.082 147.351V148.51H11.8578C10.2072 148.51 8.87 147.171 8.87 145.52V140.088C8.87 138.437 10.2072 137.093 11.8578 137.093H52.082Z" fill="#C33E5D"/>
<path id="Vector_52" d="M51.4551 146.158C51.6956 146.729 51.2536 147.351 50.6382 147.351L12.199 147.379V138.23L50.6382 138.258C50.8621 138.258 51.0636 138.342 51.2146 138.476C51.4832 138.7 51.6064 139.086 51.4551 139.45C51.1362 140.212 51.1474 141.27 51.1474 142.446V143.162C51.1474 144.338 51.1362 145.397 51.4551 146.158Z" fill="white"/>
<path id="Vector_53" opacity="0.4" d="M51.2146 138.476C50.4761 138.515 16.5075 140.274 14.1797 143.577C13.5474 144.473 12.8313 144.972 12.199 145.072V138.23L50.6382 138.258C50.8621 138.258 51.0636 138.342 51.2146 138.476Z" fill="#A3D5E6"/>
<path id="Vector_54" d="M14.1798 148.512H10.7998C9.73413 148.512 8.87 147.648 8.87 146.581V139.027C8.87 137.96 9.73377 137.096 10.7998 137.096H14.1798V148.512Z" fill="#C33E5D"/>
<path id="Vector_55" opacity="0.4" d="M51.4551 146.158C51.6956 146.73 51.2536 147.351 50.6383 147.351L42.9647 147.356C49.0606 146.663 48.6796 141.651 48.6796 141.651C48.7468 141.41 43.8624 138.471 43.9465 138.252L50.6383 138.258C50.8622 138.258 51.0637 138.342 51.2146 138.476C51.4833 138.7 51.6064 139.087 51.4551 139.451C51.1362 140.212 51.1474 141.27 51.1474 142.446V143.163C51.1474 144.338 51.1362 145.397 51.4551 146.158Z" fill="#A3D5E6"/>
<path id="Vector_56" opacity="0.4" d="M51.1474 142.137H14.2451V142.961H51.1474V142.137Z" fill="#A3D5E6"/>
<path id="Vector_57" opacity="0.4" d="M51.1474 140.28H14.2451V141.104H51.1474V140.28Z" fill="#A3D5E6"/>
<path id="Vector_58" opacity="0.4" d="M51.1474 144.499H14.2451V145.323H51.1474V144.499Z" fill="#A3D5E6"/>
<path id="Vector_59" d="M47.1109 146.388L45.0378 144.319L42.9647 146.388V140.692H47.1109V146.388Z" fill="#C33E5D"/>
<path id="Vector_60" d="M246.866 153.47V154.305C246.866 156.856 244.797 158.923 242.248 158.923H6.06667C3.91806 158.923 2.1125 157.456 1.59611 155.472C1.59611 155.468 1.59611 155.465 1.5925 155.461C1.49861 155.089 1.44806 154.702 1.44806 154.305V153.47C1.44806 150.919 3.51361 148.852 6.06667 148.852H242.248C244.797 148.852 246.866 150.919 246.866 153.47Z" fill="#E9EEFF"/>
<path id="Vector_61" opacity="0.5" d="M246.866 153.47V154.305C246.866 156.856 244.797 158.923 242.248 158.923H6.06667C3.91806 158.923 2.1125 157.456 1.59611 155.472C1.59611 155.468 1.59611 155.465 1.5925 155.461C1.495 154.72 1.44806 154.305 1.44806 154.305C133.887 158.923 242.248 148.852 242.248 148.852C244.797 148.852 246.866 150.919 246.866 153.47Z" fill="#2B2B3F"/>
<path id="Vector_62" d="M240.976 26.8461C240.976 26.8161 240.98 26.7898 240.98 26.7598C240.98 26.7298 240.976 26.7034 240.976 26.677C241.409 26.4779 241.844 26.2484 242.273 25.9702C242.731 25.6544 243.197 25.2894 243.63 24.872L243.536 24.5034C243.446 24.086 243.284 23.6835 243.138 23.2813C243.055 23.0858 242.957 22.8939 242.863 22.702C242.777 22.5026 242.671 22.3183 242.555 22.1379L242.36 21.8145C241.77 21.8181 241.172 21.8937 240.627 21.9948C240.135 22.0964 239.658 22.2431 239.214 22.4122L239.094 22.2919C239.259 21.8441 239.409 21.3704 239.507 20.8779C239.612 20.3326 239.687 19.7345 239.691 19.144L239.368 18.9485C239.188 18.8318 239 18.7267 238.805 18.6403C238.613 18.5463 238.421 18.4484 238.222 18.3657C237.82 18.2189 237.422 18.0574 237.004 17.9671L236.636 17.8731C236.219 18.3057 235.854 18.7682 235.539 19.2308C235.261 19.6557 235.031 20.0919 234.832 20.5281C234.806 20.5281 234.776 20.5205 234.75 20.5205C234.72 20.5205 234.693 20.5281 234.663 20.5281C234.468 20.0919 234.235 19.6557 233.957 19.2308C233.645 18.7682 233.277 18.3057 232.863 17.8731L232.495 17.9671C232.074 18.0574 231.676 18.2189 231.274 18.3657C231.078 18.4484 230.886 18.5463 230.691 18.6403C230.496 18.7267 230.312 18.8322 230.127 18.9485L229.804 19.144C229.812 19.7345 229.887 20.3326 229.988 20.8779C230.09 21.3704 230.236 21.8441 230.405 22.2919C230.364 22.3331 230.323 22.3707 230.285 22.4122C229.838 22.2431 229.364 22.0964 228.872 21.9948C228.327 21.8933 227.726 21.8181 227.14 21.8145L226.94 22.1379C226.828 22.3186 226.722 22.5029 226.632 22.702C226.542 22.8939 226.444 23.0854 226.361 23.2813C226.211 23.6839 226.053 24.086 225.963 24.5034L225.869 24.872C226.301 25.2894 226.764 25.6544 227.226 25.9702C227.651 26.2484 228.086 26.4779 228.519 26.677C228.519 26.7034 228.515 26.7298 228.515 26.7598C228.515 26.7898 228.519 26.8161 228.519 26.8461C228.086 27.0416 227.651 27.2751 227.226 27.5533C226.764 27.8656 226.301 28.2338 225.869 28.6475L225.963 29.0161C226.053 29.4335 226.211 29.8361 226.361 30.2383C226.444 30.4338 226.542 30.6256 226.632 30.8211C226.722 31.0166 226.828 31.2009 226.94 31.3816L227.14 31.705C227.726 31.7014 228.327 31.6259 228.872 31.5244C229.364 31.4228 229.838 31.2761 230.285 31.107C230.323 31.1482 230.364 31.1897 230.405 31.2273C230.236 31.6747 230.09 32.1488 229.988 32.6413C229.887 33.1866 229.812 33.7883 229.804 34.3752L230.127 34.5743C230.312 34.687 230.496 34.7925 230.691 34.8789C230.886 34.9729 231.078 35.0708 231.274 35.1535C231.676 35.3039 232.074 35.4618 232.495 35.5521L232.863 35.6461C233.277 35.2135 233.645 34.751 233.957 34.2884C234.235 33.8635 234.468 33.4273 234.663 32.9911C234.693 32.9947 234.72 32.9987 234.75 32.9987C234.776 32.9987 234.806 32.9951 234.832 32.9911C235.032 33.4273 235.261 33.8638 235.539 34.2884C235.855 34.751 236.219 35.2135 236.636 35.6461L237.004 35.5521C237.422 35.4618 237.82 35.3039 238.222 35.1535C238.421 35.0708 238.613 34.9729 238.805 34.8789C239 34.7925 239.188 34.687 239.368 34.5743L239.691 34.3752C239.687 33.7883 239.612 33.1866 239.507 32.6413C239.409 32.1488 239.259 31.6747 239.094 31.2273C239.135 31.1897 239.173 31.1482 239.214 31.107C239.658 31.2761 240.135 31.4228 240.627 31.5244C241.172 31.6259 241.77 31.7011 242.36 31.705L242.555 31.3816C242.672 31.2009 242.777 31.017 242.863 30.8211C242.957 30.6256 243.055 30.4338 243.138 30.2383C243.284 29.8361 243.446 29.4335 243.536 29.0161L243.63 28.6475C243.197 28.2338 242.732 27.8652 242.273 27.5533C241.844 27.2747 241.409 27.0416 240.976 26.8461ZM234.749 29.7417C233.103 29.7417 231.769 28.4065 231.769 26.7594C231.769 25.1123 233.103 23.7771 234.749 23.7771C236.395 23.7771 237.729 25.1123 237.729 26.7594C237.729 28.4069 236.395 29.7417 234.749 29.7417Z" fill="#EBA154"/>
<path id="Vector_63" d="M226.206 31.3625H206.097V51.1803H211.681" stroke="#FD783D" stroke-miterlimit="10" stroke-dasharray="4 4"/>
<path id="Vector_64" d="M223.215 61.7874H212.159V63.7644H223.215V61.7874Z" fill="white"/>
<path id="Vector_65" d="M229.156 65.4455H212.159V67.4229H229.156V65.4455Z" fill="white"/>
<path id="Vector_66" d="M217.948 69.1036H212.159V71.081H217.948V69.1036Z" fill="white"/>
<path id="Vector_67" d="M226.1 69.1036H220.311V71.081H226.1V69.1036Z" fill="#EBA154"/>
<path id="Vector_68" d="M236.484 69.1036H228.171V71.081H236.484V69.1036Z" fill="#EBA154"/>
<path id="Vector_69" d="M236.484 65.4455H231.436V67.4229H236.484V65.4455Z" fill="#EBA154"/>
<path id="Vector_70" d="M236.484 61.7874H225.429V63.7644H236.484V61.7874Z" fill="#EBA154"/>
<path id="Vector_71" d="M240.534 48.9832H240.166V71.0206H240.534V48.9832Z" fill="white"/>
<path id="Vector_72" d="M223.699 49.793H212.331V51.8261H223.699V49.793Z" fill="white"/>
<path id="Vector_73" d="M229.809 53.5545H212.331V55.5879H229.809V53.5545Z" fill="white"/>
<path id="Vector_74" d="M218.284 57.3159H212.331V59.3489H218.284V57.3159Z" fill="white"/>
<path id="Vector_75" d="M226.666 57.3159H220.713V59.3489H226.666V57.3159Z" fill="#EBA154"/>
<path id="Vector_76" d="M237.345 57.3159H228.796V59.3489H237.345V57.3159Z" fill="#EBA154"/>
<path id="Vector_77" d="M237.345 53.5545H232.154V55.5879H237.345V53.5545Z" fill="#EBA154"/>
<path id="Vector_78" d="M237.344 49.793H225.976V51.8261H237.344V49.793Z" fill="#EBA154"/>
<path id="Vector_79" d="M198.064 11.9001H165.35V76.23H198.064V11.9001Z" fill="#F9F9F9" fill-opacity="0.51"/>
<path id="Vector_80" d="M193.638 25.5821H169.077V28.1926H193.638V25.5821Z" fill="white"/>
<path id="Vector_81" d="M185.333 31.3625H169.077V33.9729H185.333V31.3625Z" fill="white"/>
<path id="Vector_82" d="M193.638 31.3625H187.747V33.9729H193.638V31.3625Z" fill="#EBA154"/>
<path id="Vector_83" d="M193.638 37.1428H178.418V39.7533H193.638V37.1428Z" fill="#EBA154"/>
<path id="Vector_84" d="M176.205 37.1428H169.077V39.7533H176.205V37.1428Z" fill="white"/>
<path id="Vector_85" d="M182.06 42.9231H169.077V45.5336H182.06V42.9231Z" fill="white"/>
<path id="Vector_86" d="M193.638 42.9231H184.059V45.5336H193.638V42.9231Z" fill="#EBA154"/>
<path id="Vector_87" d="M193.638 48.7035H176.205V51.314H193.638V48.7035Z" fill="#EBA154"/>
<path id="Vector_88" d="M174.347 48.7035H169.077V51.314H174.347V48.7035Z" fill="white"/>
<path id="Vector_89" d="M179.616 54.4839H169.077V57.0944H179.616V54.4839Z" fill="white"/>
<path id="Vector_90" d="M193.638 54.4839H181.358V57.0944H193.638V54.4839Z" fill="#EBA154"/>
<path id="Vector_91" d="M192.913 69.8892V70.6238L190.224 71.6468V70.9404L192.105 70.2563L190.224 69.5668V68.8661L192.913 69.8892Z" fill="#EBA154"/>
<path id="Vector_92" d="M185.27 68.8661V69.5668L183.389 70.2563L185.27 70.9404V71.6468L182.582 70.6238V69.8892L185.27 68.8661Z" fill="#EBA154"/>
<path id="Vector_93" d="M188.448 66.8859H189.289L187.292 72.5889H186.451L188.448 66.8859Z" fill="#EBA154"/>
<path id="Vector_94" d="M180.569 19.6854V20.6484L177.046 21.9891V21.0632L179.51 20.1671L177.046 19.2636V18.3451L180.569 19.6854Z" fill="#EBA154"/>
<path id="Vector_95" d="M174.091 18.3447V19.2633L171.626 20.1667L174.091 21.0629V21.9887L170.568 20.648V19.685L174.091 18.3447Z" fill="#EBA154"/>
<path id="Vector_96" d="M166.148 6.50455V1.66183H166.734V3.81835H169.315V1.66183H169.901V6.50455H169.315V4.33857H166.734V6.50455H166.148ZM170.809 2.18204V1.66183H174.439V2.18204H172.917V6.50455H172.331V2.18204H170.809ZM175.343 1.66183H176.043L177.687 5.68165H177.744L179.388 1.66183H180.088V6.50455H179.54V2.82522H179.492L177.98 6.50455H177.451L175.939 2.82522H175.891V6.50455H175.343V1.66183ZM181.263 6.50455V1.66183H181.849V5.98433H184.098V6.50455H181.263Z" fill="white"/>
<path id="Vector_97" d="M13.9739 77.8038C13.2947 77.1374 12.5107 76.5986 11.6603 76.2073C11.6451 76.1989 11.6296 76.1921 11.6137 76.1856C10.4152 75.6421 9.09206 75.3848 7.75594 75.4585C6.84197 75.5069 5.92258 75.7129 5.03425 76.0862C4.97936 76.1097 4.92339 76.1335 4.86886 76.1578C3.276 76.8686 2.01934 78.0278 1.183 79.4223C-0.154553 81.6465 -0.422497 84.4677 0.712475 87.0138C2.55739 91.1533 7.42444 93.0193 11.561 91.1731C15.353 89.4809 17.2355 85.2479 16.1023 81.3661C15.9997 81.0123 15.8712 80.6618 15.7174 80.317C15.2858 79.3486 14.6893 78.5044 13.9739 77.8038ZM10.5361 88.8741C7.66603 90.1552 4.29 88.8604 3.00986 85.9886C2.24864 84.2805 2.39814 82.3934 3.2482 80.8757C3.25398 80.8652 3.26011 80.8533 3.26698 80.841C3.84655 79.8209 4.74283 78.9706 5.89333 78.4571C6.10892 78.361 6.32811 78.2793 6.54875 78.2128C6.5715 78.2049 6.59497 78.198 6.61808 78.1911C7.75811 77.8569 8.94039 77.8988 10.0158 78.2587C10.0205 78.2591 10.0244 78.2605 10.0288 78.262C10.95 78.572 11.7903 79.1159 12.4547 79.8552C12.8429 80.286 13.1712 80.785 13.4196 81.3426C13.5742 81.6895 13.6904 82.0429 13.7713 82.3996C14.3643 84.9996 13.0596 87.7478 10.5361 88.8741Z" fill="#64648E"/>
<path id="Vector_98" d="M11.6603 76.2073C12.5107 76.5983 13.2947 77.1374 13.974 77.8038C14.689 78.5045 15.2859 79.349 15.7174 80.3174C15.8712 80.6622 15.9998 81.0127 16.1023 81.3665L13.7717 82.3996C13.6908 82.0429 13.5746 81.6895 13.42 81.3426C13.1716 80.785 12.8437 80.286 12.4551 79.8552C11.7907 79.1159 10.95 78.572 10.0292 78.262L10.0162 78.2587L11.6137 76.1859" fill="#EBA154"/>
<path id="Vector_99" d="M10.0291 78.2616L10.0161 78.2584C8.94105 77.8984 7.75841 77.8565 6.61838 78.1908C6.59527 78.1976 6.5718 78.2049 6.54905 78.2125L5.03455 76.0862C5.92288 75.7125 6.84227 75.5069 7.75624 75.4585C9.09271 75.3848 10.4158 75.6417 11.614 76.1856" fill="#B83D5D"/>
<path id="Vector_100" d="M8.87 91.8857V92.6085" stroke="#FD783D" stroke-miterlimit="10"/>
<path id="Vector_101" d="M8.87 93.9914V104.365" stroke="#FD783D" stroke-miterlimit="10" stroke-dasharray="3.83 3.83"/>
<path id="Vector_102" d="M8.87 105.056V105.779H9.59222" stroke="#FD783D" stroke-miterlimit="10"/>
<path id="Vector_103" d="M11.0786 105.779H31.1419" stroke="#FD783D" stroke-miterlimit="10" stroke-dasharray="4.12 4.12"/>
<path id="Vector_104" d="M31.885 105.779H32.6072V105.056" stroke="#FD783D" stroke-miterlimit="10"/>
<path id="Vector_105" d="M32.6072 103.649V93.093" stroke="#FD783D" stroke-miterlimit="10" stroke-dasharray="3.89 3.89"/>
<path id="Vector_106" d="M32.6072 92.3895V91.6667" stroke="#FD783D" stroke-miterlimit="10"/>
<path id="Vector_107" d="M93.5838 7.8984H23.9442V90.9823H93.5838V7.8984Z" fill="#F9F9F9" fill-opacity="0.51"/>
<path id="Vector_108" d="M93.5838 3.85113H23.9442V14.3961H93.5838V3.85113Z" fill="#64648E"/>
<path id="Vector_109" d="M85.5252 85.2674V85.9518L83.0209 86.9047V86.2467L84.773 85.6096L83.0209 84.9674V84.3145L85.5252 85.2674Z" fill="#EBA154"/>
<path id="Vector_110" d="M78.4052 84.3145V84.9674L76.6531 85.6096L78.4052 86.2467V86.9047L75.9009 85.9518V85.2674L78.4052 84.3145Z" fill="#EBA154"/>
<path id="Vector_111" d="M81.5736 82.7024L80.2523 87.6144H79.82L81.1413 82.7024H81.5736Z" fill="#EBA154"/>
<path id="Vector_112" d="M40.4459 21.1185V21.9721L37.323 23.1602V22.3396L39.5077 21.5453L37.323 20.7445V19.9304L40.4459 21.1185Z" fill="#EBA154"/>
<path id="Vector_113" d="M34.7031 19.93V20.7442L32.5184 21.5449L34.7031 22.3392V23.1599L31.5803 21.9717V21.1182L34.7031 19.93Z" fill="#EBA154"/>
<path id="Vector_114" d="M29.2702 11.4152L28.2761 7.77687H28.7234L29.4833 10.7401H29.5188L30.2928 7.77687H30.7898L31.5639 10.7401H31.5994L32.3592 7.77687H32.8065L31.8124 11.4152H31.3579L30.5555 8.5159H30.5271L29.7247 11.4152H29.2702ZM33.3551 11.4152V7.77687H35.5493V8.16769H33.7954V9.39705H35.4357V9.78786H33.7954V11.0243H35.5777V11.4152H33.3551ZM36.343 11.4152V7.77687H37.6141C37.8672 7.77687 38.0763 7.82071 38.2406 7.90834C38.4053 7.99477 38.5277 8.11146 38.6082 8.25832C38.6887 8.40398 38.7288 8.56566 38.7288 8.7433C38.7288 8.89963 38.701 9.02871 38.6454 9.13058C38.5909 9.23241 38.5187 9.31296 38.4287 9.37218C38.3399 9.43138 38.2435 9.47521 38.1395 9.50365V9.53917C38.2507 9.54629 38.3627 9.58535 38.475 9.65643C38.5873 9.72748 38.6815 9.82934 38.7573 9.96197C38.8328 10.0946 38.8707 10.2569 38.8707 10.4487C38.8707 10.6311 38.8296 10.7952 38.7465 10.9408C38.6638 11.0865 38.5331 11.202 38.3543 11.2873C38.1756 11.3725 37.943 11.4152 37.6567 11.4152H36.343ZM36.7832 11.0243H37.6567C37.9441 11.0243 38.1482 10.9687 38.2691 10.8573C38.3908 10.7448 38.4518 10.6086 38.4518 10.4487C38.4518 10.3256 38.4204 10.2119 38.358 10.1076C38.2951 10.0023 38.2056 9.91817 38.0897 9.8554C37.9737 9.79144 37.8365 9.75946 37.678 9.75946H36.7832V11.0243ZM36.7832 9.37573H37.5996C37.7322 9.37573 37.8517 9.34967 37.9582 9.29756C38.0662 9.24545 38.1514 9.17202 38.2139 9.07727C38.2778 8.98252 38.3099 8.87119 38.3099 8.7433C38.3099 8.5834 38.2543 8.44778 38.1431 8.33648C38.0319 8.22395 37.8553 8.16769 37.6141 8.16769H36.7832V9.37573ZM42.1222 11.4152H41.0002V7.77687H42.172C42.5248 7.77687 42.8263 7.84972 43.0773 7.99539C43.3283 8.13986 43.5204 8.34772 43.6544 8.61892C43.788 8.88897 43.8548 9.21228 43.8548 9.58889C43.8548 9.96789 43.7876 10.2942 43.6526 10.5678C43.5175 10.8402 43.3211 11.0498 43.0632 11.1966C42.805 11.3423 42.4916 11.4152 42.1222 11.4152ZM41.4404 11.0243H42.094C42.3945 11.0243 42.6436 10.9663 42.8412 10.8502C43.039 10.7342 43.1864 10.5689 43.2832 10.3546C43.3803 10.1402 43.4287 9.88499 43.4287 9.58889C43.4287 9.29518 43.381 9.04233 43.285 8.83035C43.1893 8.61715 43.0459 8.45371 42.8556 8.34002C42.6649 8.22514 42.4277 8.16769 42.1435 8.16769H41.4404V11.0243ZM44.5933 11.4152V7.77687H46.7877V8.16769H45.0338V9.39705H46.674V9.78786H45.0338V11.0243H46.8159V11.4152H44.5933ZM47.7302 7.77687L48.8096 10.8396H48.8522L49.9316 7.77687H50.3931L49.058 11.4152H48.6038L47.2687 7.77687H47.7302ZM50.9597 11.4152V7.77687H53.1538V8.16769H51.3998V9.39705H53.04V9.78786H51.3998V11.0243H53.1823V11.4152H50.9597ZM53.9471 11.4152V7.77687H54.3877V11.0243H56.0777V11.4152H53.9471ZM59.6855 9.59601C59.6855 9.97974 59.6162 10.3114 59.4775 10.5908C59.3392 10.8704 59.1493 11.0859 58.9077 11.2375C58.6665 11.3891 58.3906 11.4649 58.0804 11.4649C57.7706 11.4649 57.4947 11.3891 57.2535 11.2375C57.0119 11.0859 56.8219 10.8704 56.6833 10.5908C56.545 10.3114 56.4756 9.97974 56.4756 9.59601C56.4756 9.21228 56.545 8.88066 56.6833 8.60118C56.8219 8.32166 57.0119 8.10611 57.2535 7.95452C57.4947 7.80293 57.7706 7.72711 58.0804 7.72711C58.3906 7.72711 58.6665 7.80293 58.9077 7.95452C59.1493 8.10611 59.3392 8.32166 59.4775 8.60118C59.6162 8.88066 59.6855 9.21228 59.6855 9.59601ZM59.2594 9.59601C59.2594 9.28098 59.2067 9.01508 59.1013 8.79837C58.9973 8.58163 58.8557 8.41761 58.677 8.30627C58.4997 8.19493 58.3007 8.13928 58.0804 8.13928C57.8605 8.13928 57.6612 8.19493 57.4824 8.30627C57.3047 8.41761 57.1632 8.58163 57.0581 8.79837C56.9537 9.01508 56.9017 9.28098 56.9017 9.59601C56.9017 9.91105 56.9537 10.1769 57.0581 10.3937C57.1632 10.6104 57.3047 10.7744 57.4824 10.8858C57.6612 10.9971 57.8605 11.0527 58.0804 11.0527C58.3007 11.0527 58.4997 10.9971 58.677 10.8858C58.8557 10.7744 58.9973 10.6104 59.1013 10.3937C59.2067 10.1769 59.2594 9.91105 59.2594 9.59601ZM60.4258 11.4152V7.77687H61.6543C61.9392 7.77687 62.1725 7.8284 62.3538 7.93143C62.5358 8.0333 62.6708 8.17126 62.7582 8.34537C62.846 8.51944 62.8897 8.71367 62.8897 8.92803C62.8897 9.14243 62.846 9.33724 62.7582 9.5125C62.6719 9.6878 62.5383 9.82754 62.357 9.93176C62.1761 10.0348 61.9443 10.0863 61.6612 10.0863H60.7808V9.6955H61.6471C61.8425 9.6955 61.9992 9.66174 62.1176 9.59424C62.2357 9.52674 62.3217 9.43553 62.3751 9.32065C62.4293 9.20458 62.4567 9.07373 62.4567 8.92803C62.4567 8.78237 62.4293 8.65209 62.3751 8.53722C62.3217 8.42234 62.2353 8.33232 62.1158 8.26717C61.9963 8.20086 61.8378 8.16769 61.6399 8.16769H60.866V11.4152H60.4258ZM64.0391 7.77687V11.4152H63.5989V7.77687H64.0391ZM67.8051 7.77687V11.4152H67.379L65.3976 8.55854H65.3622V11.4152H64.922V7.77687H65.3481L67.3364 10.6406H67.3718V7.77687H67.8051ZM71.1714 8.91383C71.1324 8.79422 71.0808 8.68704 71.0168 8.59229C70.9544 8.49635 70.8789 8.41464 70.7915 8.34714C70.7052 8.27964 70.607 8.22811 70.4968 8.19258C70.3867 8.15703 70.2661 8.13928 70.1347 8.13928C69.9191 8.13928 69.7233 8.19493 69.5471 8.30627C69.3705 8.41761 69.2304 8.58163 69.1264 8.79837C69.0221 9.01508 68.9701 9.28098 68.9701 9.59601C68.9701 9.91105 69.0228 10.1769 69.1279 10.3937C69.2333 10.6104 69.376 10.7744 69.5558 10.8858C69.7356 10.9971 69.9382 11.0527 70.1632 11.0527C70.3712 11.0527 70.5546 11.0083 70.7135 10.9195C70.8731 10.8295 70.9973 10.7028 71.0862 10.5394C71.1761 10.3747 71.2212 10.1811 71.2212 9.95842L71.3559 9.98683H70.2625V9.59601H71.647V9.98683C71.647 10.2865 71.5831 10.547 71.4556 10.7685C71.3288 10.99 71.1537 11.1617 70.9298 11.2837C70.7074 11.4045 70.4517 11.4649 70.1632 11.4649C69.8411 11.4649 69.5583 11.3891 69.3146 11.2375C69.0719 11.0859 68.8823 10.8704 68.7465 10.5908C68.6115 10.3114 68.544 9.97974 68.544 9.59601C68.544 9.30822 68.5826 9.04945 68.6595 8.81969C68.7375 8.58875 68.8477 8.39213 68.9896 8.22988C69.1315 8.06762 69.2998 7.94328 69.4937 7.85681C69.688 7.77037 69.9014 7.72711 70.1347 7.72711C70.3264 7.72711 70.5051 7.75613 70.6709 7.81416C70.8377 7.87101 70.9862 7.95217 71.1165 8.05754C71.2476 8.1618 71.357 8.28672 71.4448 8.43239C71.5325 8.57689 71.5928 8.73738 71.6257 8.91383H71.1714Z" fill="white"/>
<path id="Vector_115" d="M56.4539 28.2277H35.9836V31.979H56.4539V28.2277Z" fill="#54B3CD"/>
<path id="Vector_116" d="M69.5735 28.2277H59.3381V31.979H69.5735V28.2277Z" fill="#EBA154"/>
<path id="Vector_117" d="M86.0278 28.2277H71.9308V31.979H86.0278V28.2277Z" fill="white"/>
<path id="Vector_118" d="M45.5376 34.9252H35.9836V38.6764H45.5376V34.9252Z" fill="#54B3CD"/>
<path id="Vector_119" d="M64.4558 34.9252H48.1372V38.6764H64.4558V34.9252Z" fill="#EBA154"/>
<path id="Vector_120" d="M86.0279 34.9252H67.1151V38.6764H86.0279V34.9252Z" fill="white"/>
<path id="Vector_121" d="M48.5597 41.6226H35.9836V45.3739H48.5597V41.6226Z" fill="#54B3CD"/>
<path id="Vector_122" d="M74.2639 41.6226H50.6068V45.3739H74.2639V41.6226Z" fill="#EBA154"/>
<path id="Vector_123" d="M86.0279 41.6226H76.799V45.3739H86.0279V41.6226Z" fill="white"/>
<path id="Vector_124" d="M51.8418 48.3201H35.9836V52.0714H51.8418V48.3201Z" fill="#54B3CD"/>
<path id="Vector_125" d="M69.5735 48.3201H54.1815V52.0714H69.5735V48.3201Z" fill="#EBA154"/>
<path id="Vector_126" d="M86.0278 48.3201H71.9308V52.0714H86.0278V48.3201Z" fill="white"/>
<path id="Vector_127" d="M42.9379 55.0176H35.9836V58.7689H42.9379V55.0176Z" fill="#54B3CD"/>
<path id="Vector_128" d="M59.0558 55.0176H45.2776V58.7689H59.0558V55.0176Z" fill="#EBA154"/>
<path id="Vector_129" d="M86.0279 55.0176H61.2007V58.7689H86.0279V55.0176Z" fill="white"/>
<path id="Vector_130" d="M55.8711 61.7151H35.9836V65.4664H55.8711V61.7151Z" fill="#54B3CD"/>
<path id="Vector_131" d="M64.4558 61.7151H58.3411V65.4664H64.4558V61.7151Z" fill="#EBA154"/>
<path id="Vector_132" d="M86.0279 61.7151H67.1151V65.4664H86.0279V61.7151Z" fill="white"/>
<path id="Vector_133" d="M61.8775 68.4126H35.9836V72.164H61.8775V68.4126Z" fill="#54B3CD"/>
<path id="Vector_134" d="M74.6543 68.4126H64.0604V72.164H74.6543V68.4126Z" fill="#EBA154"/>
<path id="Vector_135" d="M86.0279 68.4126H76.799V72.164H86.0279V68.4126Z" fill="white"/>
<path id="Vector_136" d="M43.9126 75.1102H35.9836V78.8615H43.9126V75.1102Z" fill="#54B3CD"/>
<path id="Vector_137" d="M55.8711 75.1102H46.2186V78.8615H55.8711V75.1102Z" fill="#EBA154"/>
<path id="Vector_138" d="M86.0279 75.1102H58.3411V78.8615H86.0279V75.1102Z" fill="white"/>
<path id="Vector_139" d="M89.5274 28.2277H88.7651V78.8615H89.5274V28.2277Z" fill="white"/>
<path id="Vector_140" d="M29.5461 31.9793C30.5814 31.9793 31.4206 31.1395 31.4206 30.1035C31.4206 29.0675 30.5814 28.2277 29.5461 28.2277C28.5108 28.2277 27.6716 29.0675 27.6716 30.1035C27.6716 31.1395 28.5108 31.9793 29.5461 31.9793Z" fill="white"/>
<path id="Vector_141" d="M29.5461 38.6767C30.5814 38.6767 31.4206 37.8369 31.4206 36.8009C31.4206 35.765 30.5814 34.9252 29.5461 34.9252C28.5108 34.9252 27.6716 35.765 27.6716 36.8009C27.6716 37.8369 28.5108 38.6767 29.5461 38.6767Z" fill="white"/>
<path id="Vector_142" d="M29.5461 45.3743C30.5814 45.3743 31.4206 44.5345 31.4206 43.4984C31.4206 42.4624 30.5814 41.6226 29.5461 41.6226C28.5108 41.6226 27.6716 42.4624 27.6716 43.4984C27.6716 44.5345 28.5108 45.3743 29.5461 45.3743Z" fill="white"/>
<path id="Vector_143" d="M29.5461 52.0714C30.5814 52.0714 31.4206 51.2316 31.4206 50.1956C31.4206 49.1595 30.5814 48.3197 29.5461 48.3197C28.5108 48.3197 27.6716 49.1595 27.6716 50.1956C27.6716 51.2316 28.5108 52.0714 29.5461 52.0714Z" fill="white"/>
<path id="Vector_144" d="M29.5461 58.7689C30.5814 58.7689 31.4206 57.9291 31.4206 56.8931C31.4206 55.8571 30.5814 55.0173 29.5461 55.0173C28.5108 55.0173 27.6716 55.8571 27.6716 56.8931C27.6716 57.9291 28.5108 58.7689 29.5461 58.7689Z" fill="white"/>
<path id="Vector_145" d="M29.5461 65.4668C30.5814 65.4668 31.4206 64.627 31.4206 63.591C31.4206 62.5549 30.5814 61.7151 29.5461 61.7151C28.5108 61.7151 27.6716 62.5549 27.6716 63.591C27.6716 64.627 28.5108 65.4668 29.5461 65.4668Z" fill="white"/>
<path id="Vector_146" d="M29.5461 72.1643C30.5814 72.1643 31.4206 71.3245 31.4206 70.2885C31.4206 69.2525 30.5814 68.4126 29.5461 68.4126C28.5108 68.4126 27.6716 69.2525 27.6716 70.2885C27.6716 71.3245 28.5108 72.1643 29.5461 72.1643Z" fill="white"/>
<path id="Vector_147" d="M29.5461 78.8618C30.5814 78.8618 31.4206 78.022 31.4206 76.986C31.4206 75.95 30.5814 75.1102 29.5461 75.1102C28.5108 75.1102 27.6716 75.95 27.6716 76.986C27.6716 78.022 28.5108 78.8618 29.5461 78.8618Z" fill="white"/>
<path id="Vector_148" d="M90.4818 9.70522C90.4818 10.7618 89.626 11.6183 88.5701 11.6183C87.5142 11.6183 86.6584 10.7618 86.6584 9.70522C86.6584 8.64859 87.5142 7.79216 88.5701 7.79216C89.6256 7.79216 90.4818 8.64859 90.4818 9.70522Z" fill="#B83D5D"/>
<path id="Vector_149" d="M85.756 9.66691C85.756 10.7315 84.8936 11.5944 83.8298 11.5944C82.766 11.5944 81.9036 10.7315 81.9036 9.66691C81.9036 8.60233 82.766 7.7394 83.8298 7.7394C84.8936 7.73903 85.756 8.60197 85.756 9.66691Z" fill="white"/>
<path id="Vector_150" d="M109.598 17.6679H102.852V19.5592H109.598V17.6679Z" fill="#E9EEFF"/>
<path id="Vector_151" d="M123.491 14.3H102.852V16.1913H123.491V14.3Z" fill="#64648E"/>
<path id="Vector_152" d="M114.776 19.9195V20.6422" stroke="#FD783D" stroke-miterlimit="10"/>
<path id="Vector_153" d="M114.776 21.8622V26.1324" stroke="#FD783D" stroke-miterlimit="10" stroke-dasharray="3.38 3.38"/>
<path id="Vector_154" d="M114.776 26.7424V27.4652H115.498" stroke="#FD783D" stroke-miterlimit="10"/>
<path id="Vector_155" d="M116.874 27.4651H138.194" stroke="#FD783D" stroke-miterlimit="10" stroke-dasharray="3.81 3.81"/>
<path id="Vector_156" d="M138.882 27.4652H139.604V26.7424" stroke="#FD783D" stroke-miterlimit="10"/>
<path id="Vector_157" d="M139.604 25.2764V23.0775" stroke="#FD783D" stroke-miterlimit="10" stroke-dasharray="4.06 4.06"/>
<path id="Vector_158" d="M139.604 22.3443V21.6216" stroke="#FD783D" stroke-miterlimit="10"/>
<path id="Vector_159" d="M107.332 5.82178H106.746C106.712 5.6531 106.651 5.5049 106.564 5.37723C106.479 5.24953 106.375 5.14235 106.252 5.05562C106.131 4.96737 105.996 4.90114 105.848 4.85701C105.7 4.81285 105.546 4.79081 105.385 4.79081C105.092 4.79081 104.827 4.86489 104.589 5.01309C104.352 5.16125 104.164 5.37958 104.024 5.66806C103.886 5.95653 103.816 6.31045 103.816 6.72978C103.816 7.14911 103.886 7.50299 104.024 7.7915C104.164 8.07998 104.352 8.29832 104.589 8.44648C104.827 8.59467 105.092 8.66875 105.385 8.66875C105.546 8.66875 105.7 8.64671 105.848 8.60255C105.996 8.55843 106.131 8.49298 106.252 8.40629C106.375 8.31801 106.479 8.21003 106.564 8.08233C106.651 7.95307 106.712 7.80487 106.746 7.63778H107.332C107.288 7.88528 107.208 8.10676 107.091 8.30226C106.974 8.49772 106.83 8.66402 106.656 8.80119C106.483 8.93674 106.288 9.04002 106.073 9.11095C105.859 9.18189 105.629 9.21734 105.385 9.21734C104.972 9.21734 104.605 9.11644 104.284 8.91469C103.962 8.71291 103.71 8.42599 103.526 8.05396C103.341 7.68194 103.249 7.24053 103.249 6.72978C103.249 6.21903 103.341 5.77762 103.526 5.4056C103.71 5.03358 103.962 4.74665 104.284 4.54487C104.605 4.34308 104.972 4.24223 105.385 4.24223C105.629 4.24223 105.859 4.27768 106.073 4.34861C106.288 4.41955 106.483 4.52358 106.656 4.66076C106.83 4.7963 106.974 4.96185 107.091 5.15731C107.208 5.35121 107.288 5.57269 107.332 5.82178ZM110.926 5.5191C110.897 5.27948 110.782 5.09345 110.581 4.96105C110.379 4.82865 110.132 4.76241 109.839 4.76241C109.624 4.76241 109.437 4.7971 109.276 4.86648C109.117 4.93583 108.993 5.03119 108.903 5.15257C108.815 5.27396 108.771 5.41189 108.771 5.56641C108.771 5.69567 108.801 5.80679 108.863 5.8998C108.926 5.99123 109.006 6.06769 109.104 6.12916C109.201 6.18907 109.304 6.23872 109.411 6.27815C109.518 6.31598 109.617 6.3467 109.706 6.37037L110.198 6.50277C110.324 6.53587 110.464 6.58159 110.618 6.63991C110.774 6.69823 110.923 6.77784 111.065 6.87873C111.209 6.97807 111.327 7.10574 111.419 7.26182C111.513 7.41789 111.559 7.60941 111.559 7.83642C111.559 8.09808 111.491 8.33456 111.353 8.54581C111.218 8.75703 111.019 8.92492 110.758 9.04945C110.498 9.17401 110.182 9.23627 109.81 9.23627C109.464 9.23627 109.164 9.1803 108.91 9.06838C108.658 8.95647 108.459 8.80039 108.315 8.6002C108.171 8.39997 108.09 8.16747 108.071 7.90262H108.676C108.692 8.08547 108.753 8.23681 108.861 8.35664C108.969 8.47488 109.106 8.56312 109.272 8.62148C109.439 8.67822 109.618 8.70658 109.81 8.70658C110.034 8.70658 110.235 8.67034 110.413 8.59781C110.591 8.52373 110.732 8.42125 110.836 8.29044C110.94 8.158 110.992 8.00352 110.992 7.82695C110.992 7.66615 110.947 7.53533 110.857 7.43444C110.767 7.33355 110.649 7.25155 110.503 7.1885C110.356 7.12547 110.198 7.07029 110.028 7.02299L109.432 6.85275C109.054 6.74398 108.755 6.5887 108.534 6.38692C108.314 6.18513 108.203 5.92109 108.203 5.59477C108.203 5.32361 108.277 5.08717 108.423 4.88538C108.571 4.68204 108.77 4.52438 109.019 4.41246C109.269 4.29896 109.549 4.24223 109.858 4.24223C110.17 4.24223 110.447 4.29816 110.689 4.41008C110.932 4.52044 111.124 4.67178 111.266 4.8641C111.409 5.05641 111.485 5.27475 111.493 5.5191H110.926ZM115.169 5.5191C115.141 5.27948 115.025 5.09345 114.824 4.96105C114.622 4.82865 114.375 4.76241 114.082 4.76241C113.868 4.76241 113.68 4.7971 113.52 4.86648C113.36 4.93583 113.236 5.03119 113.146 5.15257C113.058 5.27396 113.014 5.41189 113.014 5.56641C113.014 5.69567 113.045 5.80679 113.106 5.8998C113.169 5.99123 113.25 6.06769 113.347 6.12916C113.445 6.18907 113.547 6.23872 113.654 6.27815C113.762 6.31598 113.86 6.3467 113.95 6.37037L114.441 6.50277C114.567 6.53587 114.707 6.58159 114.862 6.63991C115.018 6.69823 115.167 6.77784 115.308 6.87873C115.452 6.97807 115.57 7.10574 115.663 7.26182C115.756 7.41789 115.802 7.60941 115.802 7.83642C115.802 8.09808 115.734 8.33456 115.597 8.54581C115.461 8.75703 115.263 8.92492 115.001 9.04945C114.741 9.17401 114.425 9.23627 114.054 9.23627C113.707 9.23627 113.407 9.1803 113.153 9.06838C112.901 8.95647 112.703 8.80039 112.558 8.6002C112.415 8.39997 112.333 8.16747 112.315 7.90262H112.919C112.935 8.08547 112.997 8.23681 113.104 8.35664C113.212 8.47488 113.35 8.56312 113.515 8.62148C113.682 8.67822 113.862 8.70658 114.054 8.70658C114.277 8.70658 114.478 8.67034 114.656 8.59781C114.834 8.52373 114.975 8.42125 115.079 8.29044C115.183 8.158 115.235 8.00352 115.235 7.82695C115.235 7.66615 115.19 7.53533 115.101 7.43444C115.011 7.33355 114.893 7.25155 114.746 7.1885C114.599 7.12547 114.441 7.07029 114.271 7.02299L113.676 6.85275C113.298 6.74398 112.998 6.5887 112.778 6.38692C112.557 6.18513 112.447 5.92109 112.447 5.59477C112.447 5.32361 112.52 5.08717 112.667 4.88538C112.815 4.68204 113.013 4.52438 113.262 4.41246C113.512 4.29896 113.792 4.24223 114.101 4.24223C114.413 4.24223 114.69 4.29816 114.933 4.41008C115.175 4.52044 115.367 4.67178 115.509 4.8641C115.653 5.05641 115.728 5.27475 115.736 5.5191H115.169Z" fill="white"/>
<path id="Vector_160" d="M145.075 13.9184C145.005 13.6726 144.915 13.4294 144.81 13.1913C144.509 12.5195 144.096 11.933 143.6 11.4466C143.129 10.9855 142.583 10.6119 141.994 10.3412C141.984 10.3336 141.971 10.3286 141.961 10.326C141.13 9.94733 140.213 9.76954 139.286 9.81977C138.652 9.85482 138.013 9.99792 137.397 10.2559C137.36 10.2736 137.32 10.2885 137.282 10.3062C136.178 10.8001 135.306 11.602 134.727 12.5697C134.005 13.768 133.732 15.2142 134.016 16.6282C134.096 17.0369 134.224 17.4402 134.399 17.8363C135.679 20.7091 139.056 22.0024 141.924 20.7214C143.675 19.9394 144.84 18.3801 145.19 16.6279C145.368 15.7483 145.338 14.8207 145.075 13.9184ZM141.215 19.1274C139.223 20.0149 136.881 19.1173 135.994 17.1244C135.922 16.9614 135.862 16.7959 135.812 16.6282C135.504 15.5853 135.651 14.485 136.16 13.5801C136.162 13.5725 136.167 13.5624 136.172 13.5552C136.573 12.8484 137.194 12.2568 137.994 11.9009C138.144 11.8358 138.294 11.778 138.45 11.7328C138.465 11.7252 138.48 11.7202 138.497 11.7176C139.289 11.4846 140.108 11.5146 140.855 11.7628C140.857 11.7628 140.86 11.7653 140.862 11.7653C141.501 11.9807 142.085 12.3594 142.545 12.8708C142.816 13.1689 143.042 13.5151 143.214 13.9035C143.322 14.1442 143.402 14.3899 143.46 14.6357C143.612 15.3074 143.582 15.9919 143.395 16.6286C143.081 17.7036 142.314 18.636 141.215 19.1274Z" fill="#64648E"/>
<path id="Vector_161" d="M145.19 16.6282H143.394C143.582 15.9915 143.612 15.3071 143.459 14.6353C143.401 14.3896 143.321 14.1438 143.213 13.9032C143.04 13.5147 142.815 13.1685 142.545 12.8704C142.084 12.3591 141.5 11.9804 140.862 11.765C140.859 11.765 140.856 11.7625 140.854 11.7625C140.108 11.5142 139.288 11.4842 138.497 11.7173C138.479 11.7198 138.464 11.7249 138.449 11.7325C138.294 11.7776 138.143 11.8351 137.993 11.9005C137.194 12.2564 136.573 12.848 136.172 13.5548C136.167 13.5624 136.162 13.5725 136.159 13.5798C135.651 14.4846 135.503 15.585 135.811 16.6279H134.015C133.732 15.2138 134.005 13.7677 134.726 12.5694C135.305 11.6016 136.177 10.7998 137.281 10.3058C137.319 10.2881 137.359 10.2733 137.397 10.2556C138.013 9.99756 138.652 9.85446 139.285 9.8194C140.212 9.76917 141.129 9.94733 141.961 10.3257C141.971 10.3282 141.983 10.3333 141.993 10.3409C142.582 10.6115 143.128 10.9852 143.599 11.4463C144.095 11.9327 144.508 12.5192 144.809 13.1909C144.914 13.4291 145.004 13.6723 145.074 13.918C145.338 14.8207 145.368 15.7483 145.19 16.6282Z" fill="#B83D5D"/>
<path id="Vector_162" d="M123.491 17.6679H110.95V19.5592H123.491V17.6679Z" fill="#64648E"/>
<path id="Vector_163" d="M5.56659 8.83733V8.41706C5.94363 8.41706 6.20666 8.338 6.35569 8.17983C6.50696 8.02166 6.58261 7.75732 6.58261 7.38678V6.30226C6.58261 5.99047 6.61197 5.72046 6.67065 5.49226C6.73161 5.26406 6.82983 5.07543 6.96532 4.92629C7.10077 4.77716 7.2814 4.66647 7.50716 4.59416C7.73297 4.52185 8.01182 4.48572 8.34371 4.48572V5.14998C8.0818 5.14998 7.87521 5.19063 7.72394 5.27197C7.57491 5.35332 7.46881 5.47983 7.40558 5.65155C7.34463 5.82103 7.31415 6.03792 7.31415 6.30226V7.65791C7.31415 7.83415 7.29043 7.99456 7.24301 8.13918C7.19787 8.28376 7.11319 8.40803 6.98901 8.51196C6.86482 8.61589 6.68759 8.69611 6.45731 8.75259C6.22926 8.80907 5.93236 8.83733 5.56659 8.83733ZM8.34371 13.1618C8.01182 13.1618 7.73297 13.1257 7.50716 13.0534C7.2814 12.9811 7.10077 12.8704 6.96532 12.7212C6.82983 12.5721 6.73161 12.3835 6.67065 12.1553C6.61197 11.9271 6.58261 11.6571 6.58261 11.3453V10.2607C6.58261 9.8902 6.50696 9.62586 6.35569 9.46769C6.20666 9.30952 5.94363 9.23046 5.56659 9.23046V8.81019C5.93236 8.81019 6.22926 8.83845 6.45731 8.89493C6.68759 8.95141 6.86482 9.03164 6.98901 9.13556C7.11319 9.23949 7.19787 9.36377 7.24301 9.50835C7.29043 9.65297 7.31415 9.81337 7.31415 9.98961V11.3453C7.31415 11.6096 7.34463 11.8265 7.40558 11.996C7.46881 12.1654 7.57491 12.2908 7.72394 12.3722C7.87521 12.4558 8.0818 12.4975 8.34371 12.4975V13.1618ZM5.56659 9.23046V8.41706H6.36584V9.23046H5.56659ZM14.4542 8.81019V9.23046C14.0772 9.23046 13.813 9.30952 13.6617 9.46769C13.5127 9.62586 13.4382 9.8902 13.4382 10.2607V11.3453C13.4382 11.6571 13.4077 11.9271 13.3468 12.1553C13.288 12.3835 13.191 12.5721 13.0555 12.7212C12.92 12.8704 12.7394 12.9811 12.5136 13.0534C12.2878 13.1257 12.009 13.1618 11.6771 13.1618V12.4975C11.939 12.4975 12.1445 12.4558 12.2935 12.3722C12.4447 12.2908 12.5509 12.1654 12.6118 11.996C12.6751 11.8265 12.7067 11.6096 12.7067 11.3453V9.98961C12.7067 9.81337 12.7293 9.65297 12.7744 9.50835C12.8218 9.36377 12.9076 9.23949 13.0318 9.13556C13.156 9.03164 13.3321 8.95141 13.5601 8.89493C13.7904 8.83845 14.0885 8.81019 14.4542 8.81019ZM11.6771 4.48572C12.009 4.48572 12.2878 4.52185 12.5136 4.59416C12.7394 4.66647 12.92 4.77716 13.0555 4.92629C13.191 5.07543 13.288 5.26406 13.3468 5.49226C13.4077 5.72046 13.4382 5.99047 13.4382 6.30226V7.38678C13.4382 7.75732 13.5127 8.02166 13.6617 8.17983C13.813 8.338 14.0772 8.41706 14.4542 8.41706V8.83733C14.0885 8.83733 13.7904 8.80907 13.5601 8.75259C13.3321 8.69611 13.156 8.61589 13.0318 8.51196C12.9076 8.40803 12.8218 8.28376 12.7744 8.13918C12.7293 7.99456 12.7067 7.83415 12.7067 7.65791V6.30226C12.7067 6.03792 12.6751 5.82103 12.6118 5.65155C12.5509 5.47983 12.4447 5.35332 12.2935 5.27197C12.1445 5.19063 11.939 5.14998 11.6771 5.14998V4.48572ZM14.4542 8.41706V9.23046H13.655V8.41706H14.4542Z" fill="#323247"/>
<path id="Vector_164" d="M12.5786 22.5875H5.16138V26.1295H12.5786V22.5875Z" fill="white"/>
<path id="Vector_165" d="M12.5786 28.7755H5.16138V32.3175H12.5786V28.7755Z" fill="white"/>
<path id="Vector_166" d="M12.5786 34.9638H5.16138V38.5058H12.5786V34.9638Z" fill="#EBA154"/>
<path id="Vector_167" d="M12.5786 41.1521H5.16138V44.6942H12.5786V41.1521Z" fill="#EBA154"/>
<path id="Vector_168" d="M12.5786 47.3404H5.16138V50.8825H12.5786V47.3404Z" fill="#EBA154"/>
<path id="Vector_169" d="M12.5786 53.5288H5.16138V57.0709H12.5786V53.5288Z" fill="#EBA154"/>
<path id="Vector_170" d="M12.5786 59.7168H5.16138V63.2589H12.5786V59.7168Z" fill="#EBA154"/>
<path id="Vector_171" d="M222.181 92.2373C222.181 92.2117 222.184 92.1893 222.184 92.1633C222.184 92.1376 222.181 92.1152 222.181 92.0924C222.55 91.9219 222.923 91.726 223.289 91.4879C223.681 91.2176 224.08 90.9057 224.45 90.5487L224.369 90.2336C224.292 89.8766 224.154 89.5325 224.029 89.1885C223.958 89.0212 223.874 88.8571 223.794 88.6934C223.72 88.5229 223.63 88.3653 223.53 88.211L223.363 87.9346C222.859 87.9378 222.348 88.0022 221.881 88.0889C221.46 88.1756 221.052 88.301 220.673 88.4459L220.57 88.3429C220.712 87.9602 220.84 87.5548 220.924 87.1338C221.014 86.6676 221.078 86.156 221.081 85.6511L220.805 85.4838C220.651 85.3841 220.49 85.2941 220.323 85.22C220.159 85.1394 219.995 85.056 219.825 84.9851C219.481 84.8597 219.14 84.7213 218.783 84.6444L218.469 84.5638C218.112 84.9335 217.8 85.3291 217.53 85.7248C217.292 86.0884 217.096 86.4613 216.926 86.8342C216.904 86.8342 216.878 86.8277 216.855 86.8277C216.83 86.8277 216.807 86.8342 216.781 86.8342C216.614 86.4613 216.415 86.088 216.177 85.7248C215.91 85.3291 215.595 84.9338 215.242 84.5638L214.927 84.6444C214.567 84.7213 214.226 84.8597 213.882 84.9851C213.715 85.056 213.551 85.1394 213.384 85.22C213.217 85.2941 213.06 85.3841 212.902 85.4838L212.626 85.6511C212.632 86.156 212.697 86.6673 212.783 87.1338C212.87 87.5551 212.995 87.9602 213.14 88.3429C213.105 88.3783 213.069 88.4105 213.037 88.4459C212.654 88.301 212.25 88.176 211.829 88.0889C211.363 88.0022 210.849 87.9378 210.347 87.9346L210.177 88.211C210.08 88.3653 209.99 88.5229 209.913 88.6934C209.836 88.8575 209.752 89.0216 209.682 89.1885C209.553 89.5325 209.418 89.8769 209.341 90.2336L209.261 90.5487C209.63 90.9057 210.026 91.2176 210.421 91.4879C210.784 91.7256 211.157 91.9219 211.527 92.0924C211.527 92.1148 211.523 92.1376 211.523 92.1633C211.523 92.1889 211.527 92.2117 211.527 92.2373C211.157 92.4046 210.784 92.6041 210.421 92.8419C210.026 93.1089 209.631 93.4241 209.261 93.7778L209.341 94.0929C209.418 94.45 209.553 94.794 209.682 95.138C209.752 95.3053 209.836 95.4694 209.913 95.6363C209.99 95.8036 210.08 95.9612 210.177 96.1155L210.347 96.3919C210.848 96.3887 211.363 96.3244 211.829 96.2376C212.25 96.1509 212.655 96.0255 213.037 95.8806C213.069 95.916 213.105 95.9514 213.14 95.9836C212.995 96.3663 212.87 96.7714 212.783 97.1927C212.697 97.6589 212.632 98.1735 212.626 98.6754L212.902 98.846C213.06 98.9424 213.217 99.0324 213.384 99.1065C213.551 99.1871 213.715 99.2706 213.882 99.3414C214.226 99.47 214.567 99.6052 214.927 99.6822L215.242 99.7627C215.595 99.3927 215.91 98.9974 216.177 98.6017C216.415 98.2385 216.614 97.8652 216.781 97.4923C216.807 97.4955 216.829 97.4988 216.855 97.4988C216.878 97.4988 216.903 97.4955 216.926 97.4923C217.096 97.8652 217.292 98.2385 217.53 98.6017C217.8 98.9974 218.112 99.3927 218.469 99.7627L218.783 99.6822C219.14 99.6048 219.481 99.47 219.825 99.3414C219.995 99.2706 220.159 99.1871 220.323 99.1065C220.49 99.0324 220.651 98.9424 220.805 98.846L221.081 98.6754C221.078 98.1738 221.014 97.6592 220.924 97.1927C220.84 96.7714 220.711 96.3663 220.57 95.9836C220.606 95.9514 220.638 95.916 220.673 95.8806C221.052 96.0251 221.46 96.1509 221.881 96.2376C222.348 96.3244 222.859 96.3887 223.363 96.3919L223.53 96.1155C223.63 95.9612 223.72 95.8036 223.794 95.6363C223.874 95.469 223.958 95.305 224.029 95.138C224.154 94.794 224.292 94.45 224.369 94.0929L224.45 93.7778C224.08 93.4241 223.682 93.1089 223.289 92.8419C222.923 92.6041 222.551 92.4046 222.181 92.2373ZM216.856 94.7138C215.448 94.7138 214.308 93.5722 214.308 92.1636C214.308 90.755 215.449 89.6135 216.856 89.6135C218.263 89.6135 219.404 90.755 219.404 92.1636C219.404 93.5722 218.263 94.7138 216.856 94.7138Z" fill="#323247"/>
<path id="Vector_172" d="M198.762 82.7667H195.397V97.9324H198.762V82.7667Z" fill="#B83D5D"/>
<path id="Vector_173" d="M194.041 89.4487H190.434V97.9321H194.041V89.4487Z" fill="#64648E"/>
<path id="Vector_174" d="M189.044 92.1636H185.437V97.9324H189.044V92.1636Z" fill="#FD783D"/>
<path id="Vector_175" d="M184.799 95.5164H184.077" stroke="#FD783D" stroke-miterlimit="10"/>
<path id="Vector_176" d="M182.246 95.5164H179.499" stroke="#FD783D" stroke-miterlimit="10" stroke-dasharray="5.07 5.07"/>
<path id="Vector_177" d="M178.584 95.5164H177.861V96.2391" stroke="#FD783D" stroke-miterlimit="10"/>
<path id="Vector_178" d="M177.861 97.5909V107.728" stroke="#FD783D" stroke-miterlimit="10" stroke-dasharray="3.74 3.74"/>
<path id="Vector_179" d="M177.861 108.404V109.127H178.584" stroke="#FD783D" stroke-miterlimit="10"/>
<path id="Vector_180" d="M179.81 109.127H184.102" stroke="#FD783D" stroke-miterlimit="10" stroke-dasharray="3.4 3.4"/>
<path id="Vector_181" d="M184.715 109.127H185.437" stroke="#FD783D" stroke-miterlimit="10"/>
<path id="Vector_182" d="M196.124 108.453H186.58V110.16H196.124V108.453Z" fill="white"/>
<path id="Vector_183" d="M193.181 111.611H186.58V113.318H193.181V111.611Z" fill="white"/>
<path id="Vector_184" d="M194.935 114.769H186.58V116.476H194.935V114.769Z" fill="white"/>
<path id="Vector_185" d="M198.615 114.769H196.664V116.476H198.615V114.769Z" fill="#EBA154"/>
<path id="Vector_186" d="M207.579 114.769H200.403V116.476H207.579V114.769Z" fill="#EBA154"/>
<path id="Vector_187" d="M207.579 111.611H195.297V113.318H207.579V111.611Z" fill="#EBA154"/>
<path id="Vector_188" d="M207.579 108.453H198.036V110.16H207.579V108.453Z" fill="#EBA154"/>
<path id="Vector_189" d="M240.309 91.2382H234.021V94.2415H240.309V91.2382Z" fill="#B83D5D"/>
<path id="Vector_190" d="M240.309 96.4852H234.021V99.4885H240.309V96.4852Z" fill="#B83D5D"/>
<path id="Vector_191" d="M240.309 101.732H234.021V104.735H240.309V101.732Z" fill="#B83D5D"/>
<path id="Vector_192" d="M240.309 106.978H234.021V109.982H240.309V106.978Z" fill="#B83D5D"/>
<path id="Vector_193" d="M240.309 112.225H234.021V115.228H240.309V112.225Z" fill="white"/>
<path id="Vector_194" d="M240.309 117.472H234.021V120.475H240.309V117.472Z" fill="white"/>
<path id="Vector_195" d="M240.309 122.719H234.021V125.722H240.309V122.719Z" fill="white"/>
<path id="Vector_196" d="M212.891 134.328C210.541 134.505 208.573 133.946 206.929 132.925C200.296 128.817 198.912 117.231 198.816 116.361C198.874 116.628 199.528 118.044 206.423 122.686C206.997 123.074 207.523 123.466 208.002 123.864C208.002 123.864 208.01 123.87 208.027 123.883C214.036 128.862 212.891 134.328 212.891 134.328Z" fill="#0C8068"/>
<path id="Vector_197" d="M198.812 116.309C198.812 116.309 205.006 131.52 211.878 133.122" stroke="#0A6D53" stroke-miterlimit="10"/>
<path id="Vector_198" opacity="0.5" d="M212.891 134.328C210.541 134.505 208.573 133.946 206.929 132.925C208.25 129.798 208.002 123.864 208.002 123.864C208.002 123.864 208.011 123.871 208.027 123.883C214.036 128.862 212.891 134.328 212.891 134.328Z" fill="#0A6D53"/>
<path id="Vector_199" d="M230.499 117.207C230.473 117.369 230.38 117.93 230.195 118.758C230.195 118.758 230.195 118.759 230.195 118.761C229.216 123.147 225.684 134.949 216.179 133.766C216.179 133.766 216.019 132.753 216.34 131.238C216.81 129.01 218.321 125.694 222.918 122.913C229.74 118.784 230.43 117.459 230.499 117.207Z" fill="#0C8068"/>
<path id="Vector_200" d="M230.195 118.144C230.195 118.144 225.317 130.79 216.856 133.369" stroke="#0A6D53" stroke-miterlimit="10"/>
<path id="Vector_201" opacity="0.5" d="M230.195 118.758C230.195 118.758 230.195 118.759 230.195 118.761C229.216 123.147 225.683 134.949 216.179 133.766C216.179 133.766 216.019 132.753 216.34 131.238H216.349C224.257 131.661 230.195 118.758 230.195 118.758Z" fill="#0A6D53"/>
<path id="Vector_202" d="M215.669 134.188C215.434 134.596 211.964 133.153 210.4 128.977H210.399C209.46 126.469 209.209 122.974 210.761 118.304C214.837 106.04 213.157 103.728 213.107 103.663C213.188 103.702 216.731 105.462 219.015 109.744C219.015 109.744 219.018 109.75 219.024 109.761C221.537 114.484 222.517 122.268 215.669 134.188Z" fill="#159A7A"/>
<path id="Vector_203" d="M213.105 103.661C213.105 103.661 218.42 110.372 216.396 123.136C214.372 135.901 215.669 134.187 215.669 134.187" stroke="#0C8068" stroke-miterlimit="10"/>
<path id="Vector_204" opacity="0.5" d="M215.669 134.188C215.434 134.596 211.964 133.153 210.4 128.977C219.15 131.465 219.015 109.744 219.015 109.744C219.015 109.744 219.018 109.749 219.025 109.761C221.537 114.484 222.517 122.268 215.669 134.188Z" fill="#0C8068"/>
<path id="Vector_205" d="M198.811 116.309C198.811 116.309 198.812 116.323 198.815 116.352C198.808 116.321 198.811 116.309 198.811 116.309Z" fill="#0C8068"/>
<path id="Vector_206" d="M222.395 134.005V143.808C222.395 146.676 220.073 149 217.207 149H212.6C210.723 149 209.08 148.004 208.169 146.509H208.167C207.687 145.722 207.411 144.797 207.411 143.807V134.004H222.395V134.005Z" fill="#EBA154"/>
<path id="Vector_207" d="M222.94 132.733H206.866C206.655 132.733 206.484 132.904 206.484 133.116V133.622C206.484 133.834 206.655 134.005 206.866 134.005H222.94C223.151 134.005 223.322 133.834 223.322 133.622V133.116C223.322 132.905 223.151 132.733 222.94 132.733Z" fill="#EBA154"/>
<path id="Vector_208" d="M222.395 134.005V143.808C222.395 146.676 220.073 149 217.207 149H212.6C210.724 149 209.08 148.004 208.169 146.509C219.144 149.959 221.528 141.883 221.103 138.68C220.68 135.477 216.726 134.005 216.726 134.005H222.395Z" fill="#DC831E" fill-opacity="0.68"/>
</g>
</svg>
