<svg width="32" height="23" viewBox="0 0 32 23" fill="none" xmlns="http://www.w3.org/2000/svg">
<g id="video-camera" clip-path="url(#clip0_0_72)">
<path id="Vector" d="M28.6834 5.02474C28.6151 4.80755 28.5469 4.59032 28.4788 4.37306C28.319 3.83738 27.999 3.36391 27.5628 3.01776C27.1398 2.68387 26.6913 2.62355 26.2661 2.84337L26.1516 2.90226C25.8092 3.07796 25.4551 3.25965 25.1736 3.52197C24.678 3.98415 24.2002 4.48036 23.7382 4.96006C23.5357 5.17032 23.3333 5.38057 23.1284 5.58907C23.1065 5.61086 23.0835 5.63138 23.0594 5.65055C23.0026 5.53468 22.9474 5.41935 22.8926 5.30513C22.7272 4.96015 22.571 4.6344 22.3865 4.31564C22.1993 3.98116 21.9338 3.69779 21.6134 3.49039C21.2929 3.28299 20.9271 3.15793 20.5483 3.12622C20.0519 3.07349 19.5271 3.03026 19.0461 3.12734C16.9019 3.56032 14.9446 3.98744 13.0623 4.43332C10.6667 5.00144 8.23574 5.62309 6.1454 6.16187C5.18357 6.40926 4.05162 6.71338 2.94778 7.08694C1.9573 7.42192 1.44823 8.15427 1.47556 9.2049C1.47675 9.24846 1.47374 9.29219 1.47096 9.33598C1.46817 9.37976 1.46538 9.42431 1.46564 9.46842C1.47514 10.8843 1.7416 12.3812 2.28136 14.0439C2.72717 15.4173 3.22405 16.7986 3.70498 18.1345C3.81677 18.4453 3.92858 18.7562 4.04044 19.0673C4.2625 19.6873 4.48279 20.2364 4.93159 20.6769C5.74142 21.4714 6.66717 21.7472 7.68581 21.4965C7.70469 21.4919 7.72366 21.4872 7.74251 21.482C8.37718 21.3143 9.02025 21.1364 9.64219 20.9643C10.3208 20.7766 11.0226 20.5825 11.7148 20.4008C13.2603 19.9957 14.8065 19.5936 16.3535 19.1942C17.8909 18.796 19.428 18.3962 20.9649 17.9953C21.6191 17.8236 22.3148 17.6355 22.9959 17.3852C23.6855 17.1317 24.3906 16.8244 24.7746 16.1047C25.0494 15.5893 25.3876 14.9552 25.3454 14.1632L25.5016 14.198C25.6845 14.2386 25.8441 14.2741 26.0049 14.3064L26.1999 14.3455C26.908 14.4878 27.6401 14.635 28.3864 14.5645C29.2837 14.4799 29.8842 14.216 30.2225 13.7583C30.5382 13.3311 30.6165 12.7388 30.4618 11.9476C30.2299 10.7609 29.9701 9.49198 29.644 8.25198C29.3574 7.16653 29.0147 6.0778 28.6834 5.02474ZM29.107 12.2592C29.1259 12.3906 29.1309 12.5235 29.1223 12.6558C29.1212 12.6988 29.1198 12.7406 29.1194 12.7829C28.5291 13.0368 27.9687 12.9579 27.4499 12.8332C26.8521 12.6894 26.259 12.5154 25.6853 12.3476C25.4639 12.2827 25.245 12.2186 25.0293 12.1572L23.5391 6.89804C24.5664 5.8262 25.5148 4.87459 26.6486 4.1007C26.9323 4.23827 27.0331 4.48506 27.1115 4.72749C27.7714 6.76698 28.5948 9.46646 29.107 12.2592ZM5.73634 18.9688C5.56434 18.5375 5.38663 18.0917 5.23237 17.6473C5.08302 17.2169 4.94182 16.7747 4.80525 16.3472C4.7393 16.1407 4.67331 15.9341 4.60619 15.7281C4.55415 15.5683 4.50352 15.4081 4.45286 15.2479C4.33415 14.8727 4.21132 14.4846 4.07256 14.1083C3.58546 12.8215 3.26673 11.4769 3.12445 10.1084C3.11084 9.9696 3.10602 9.82607 3.10138 9.6871C3.09673 9.54813 3.09187 9.40312 3.07812 9.26029C3.04245 8.88767 3.20367 8.6454 3.60119 8.47506C4.01616 8.2969 4.42442 8.12501 4.81467 7.96384C5.69265 7.61388 6.59563 7.33065 7.51604 7.1165C7.65272 7.08287 7.78843 7.05016 7.92317 7.01836C9.25687 6.70213 10.6082 6.3622 11.9151 6.03334C13.1584 5.72053 14.4439 5.39712 15.7118 5.09485C16.8523 4.82286 18.0442 4.62461 19.0712 4.46064C19.4455 4.41759 19.8237 4.41783 20.1984 4.46135L20.3064 4.46967C20.5098 4.47556 20.7077 4.53919 20.8773 4.65327C21.047 4.76736 21.1816 4.92725 21.2656 5.11459C21.4927 5.58995 21.6951 6.0769 21.8717 6.57343C22.2154 7.57787 22.546 8.58803 22.8378 9.47936C22.9445 9.80511 23.046 10.1154 23.1413 10.404L23.3333 11.3934C23.4944 12.2226 23.6318 12.9305 23.7652 13.6392C23.8043 13.8223 23.8228 14.0091 23.8203 14.1961C23.7873 14.9368 23.5059 15.4082 22.9598 15.6373C22.4771 15.8377 21.9815 16.0056 21.4766 16.1397C19.6457 16.6321 17.7827 17.1282 15.9809 17.608C14.362 18.039 12.7436 18.4711 11.1254 18.9044C10.4969 19.073 9.86172 19.2563 9.2474 19.4336C8.84112 19.5507 8.43499 19.6679 8.02784 19.7819C7.88075 19.8229 7.72584 19.8545 7.5765 19.8846C7.48813 19.9025 7.39982 19.9203 7.31203 19.9402C6.56268 20.1102 5.99358 19.6155 5.78176 19.084L5.73634 18.9688Z" fill="white" stroke="white"/>
</g>
<defs>
<clipPath id="clip0_0_72">
<rect width="28.1798" height="15.3708" fill="white" transform="translate(0.528076 7.46387) rotate(-13.8249)"/>
</clipPath>
</defs>
</svg>
